<svg version="1.1" id="icon" xmlns="http://www.w3.org/2000/svg" xmlns:xlink="http://www.w3.org/1999/xlink" x="0px" y="0px" viewBox="0 0 892.748 892.748" style="enable-background:new 0 0 892.748 892.748;" xml:space="preserve">
	<g>
		<g>
			<path d="M622.616,253.888v-25.797c17.072-29.872,20.131-61.084,20.383-64.522c0-37.326-26.115-112.039-124.842-128.474
				c-51.91-8.663-71.467-17.134-85.734-23.248C417.583,5.477,404.779,0,374.971,0c-129.682,0-267.9,12.61-267.9,163.568
				c0,43.313,15.413,93.823,58.982,94.014v579.242c0,0,12.609,55.924,228.281,55.924c215.545,0,228.282-55.924,228.282-55.924
				v-75.542c91.084-5.226,163.061-59.428,163.061-126.37V380.194C785.675,313.38,713.7,259.11,622.616,253.888 M566.819,738.987
				c0,0-3.184,55.926-172.485,55.926c-169.428,0-169.875-55.926-169.875-55.926V218.219c9.108,11.337,25.16,19.873,55.733,21.273
				v445.354c0,15.73-7.262,28.536-16.306,28.536c-9.045,0-16.306-12.806-16.306-28.536v28.536c0,18.025,14.585,32.61,32.61,32.61
				c17.962,0,32.612-14.585,32.612-32.61V307.2c5.604,15.096,15.923,29.044,37.069,36.114l14.396,4.715
				c16.176,5.159,24.585,8.343,30.062,12.229V717.46c0,15.731-7.323,28.533-16.307,28.533c-9.045,0-16.305-12.802-16.305-28.533
				v28.533c0,18.025,14.584,32.613,32.61,32.613c17.964,0,32.61-14.589,32.61-32.613V523.827c11.339,26.75,27.899,46.88,52.356,46.88
				c6.246,0,17.326-1.275,29.174-6.753v120.894c0,15.73-7.26,28.536-16.305,28.536s-16.307-12.806-16.307-28.536v28.536
				c0,18.025,14.521,32.61,32.611,32.61c17.963,0,32.611-14.585,32.611-32.61V531.089c8.664-16.435,14.906-38.92,14.906-71.849
				c0-88.28,5.348-134.397,10.826-159.108v438.855H566.819z M582.999,199.109c-5.859,11.593-14.65,23.059-27.645,29.555
				c-6.369,3.313-11.85,8.791-16.943,15.415c-17.451,23.439-26.879,69.681-29.936,148.153c-0.893,20.383-1.4,42.103-1.4,67.008
				c0,14.395-1.91,60.128-25.861,62.483c-12.674-11.019-29.557-77.389-29.557-132.04c0-35.286-8.786-54.014-24.712-66.497
				c-9.17-7.134-20.57-12.355-34.269-17.197c-4.33-1.529-8.66-3.058-13.376-4.522l-12.482-4.014l-1.466-0.51
				c-1.465-0.509-2.546-1.209-3.629-2.165c-4.013-3.058-5.86-9.936-7.519-29.809c-2.036-23.822-6.113-73.632-66.114-73.632
				c-21.02,0-25.924-3.693-27.261-6.751c-3.504-8.409-11.656-28.153-42.358-28.153c-34.968,0-44.648,29.045-49.362,42.93
				c-1.147,3.567-2.93,8.917-2.166,9.556c-4.903-3.313-10.893-24.905-10.955-45.352c0-85.734,55.223-114.65,218.982-114.65
				c19.745,0,25.479,2.482,38.09,7.897c16.562,7.134,39.3,16.879,97.072,26.496c80.385,13.376,83.693,73.697,84.076,78.09
				C594.208,161.657,592.298,180.638,582.999,199.109 M725.675,603.126c0,35.543-18.725,101.466-103.059,108.474V319.748
				c101.912,6.178,103.059,74.651,103.059,110.574V603.126z"/>
		</g>
	</g>
</svg>
