<svg id="icon" version="1.1" xmlns="http://www.w3.org/2000/svg" xmlns:xlink="http://www.w3.org/1999/xlink" x="0px" y="0px" viewBox="0 0 1000 1000" enable-background="new 0 0 1000 1000" xml:space="preserve">
  <g>
    <g transform="translate(0.000000,511.000000) scale(0.100000,-0.100000)">
      <path d="M410.1,3975.8c-109.1-24.9-206.7-105.3-260.3-212.4L100,3661.9V354.7v-3307.3h2805.8h2805.8l-68.9-78.5c-82.3-95.7-191.4-317.7-222-451.7c-28.7-126.3,7.7-216.3,107.2-264.1c128.2-61.3,252.6,13.4,292.9,176.1c45.9,176.1,162.7,342.6,302.4,428.7c63.2,38.3,68.9,40.2,86.1,9.6c47.9-84.2,222-271.8,327.3-350.2c267.9-197.1,528.3-277.5,912.9-277.5c384.7,0,645,80.4,912.9,277.5c105.3,78.5,279.4,266,327.3,350.2c17.2,30.6,23,28.7,86.1-9.6c139.7-86.1,256.5-252.6,302.4-428.7c24.9-101.4,91.9-178,170.4-195.2c82.3-17.2,181.8,36.4,222,120.6c30.6,67,30.6,74.6-9.6,212.5c-22.9,80.4-76.6,202.9-116.7,271.8c-78.5,134-271.8,327.3-384.7,388.5l-68.9,36.4l44,135.9c23,74.6,57.4,210.5,74.6,304.3l34.4,166.5H9394c377.1,0,423,9.6,472.8,95.7c53.6,88.1,42.1,166.5-32.6,241.2l-65.1,65.1h-346.4h-346.4v189.5v189.5l124.4,80.4c210.5,135.9,354.1,321.5,444,568.4c59.3,162.7,57.4,254.6-3.8,327.3c-61.3,72.7-137.8,91.9-227.8,53.6c-70.8-28.7-89.9-59.3-155-243.1c-34.5-99.5-137.8-266-164.6-266c-9.6,0-17.2,918.7-17.2,2248.9c0,1988.6-3.8,2258.4-28.7,2321.6c-38.3,90-95.7,149.3-191.4,201l-76.5,42.1l-4153.2,3.8C2341.2,3989.2,444.5,3985.4,410.1,3975.8z M810.1,3547.1c-59.3-32.5-95.7-101.4-97.6-179.9c0-49.8,17.2-82.3,65.1-130.2l65.1-65.1H672.3H501.9v201v201h178C836.9,3572,850.3,3570.1,810.1,3547.1z M1422.5,3547.1c-59.3-32.5-95.7-101.4-97.6-179.9c0-49.8,17.2-82.3,65.1-130.2l65.1-65.1h-241.1c-233.5,1.9-241.2,1.9-191.4,32.5c107.2,67,126.3,223.9,36.4,313.9l-55.5,55.5H1235C1439.8,3572,1462.7,3570.1,1422.5,3547.1z M2021.6,3539.5c-105.3-84.2-112.9-208.6-19.1-302.4l65.1-65.1h-241.1c-233.5,1.9-241.2,1.9-191.4,32.5c107.2,67,126.3,223.9,36.4,313.9l-55.5,55.5h222C2052.2,3573.9,2059.9,3572,2021.6,3539.5z M8674.4,3372.9v-201H5436c-3025.9,1.9-3236.4,3.8-3188.6,32.5c107.2,67,126.3,223.9,36.4,313.9l-55.5,55.5h3223h3223.1V3372.9z M8674.4,1876.2c-1.9-662.2-5.7-886.1-23-857.4c-59.3,111-220.1,143.5-310.1,63.2c-24.9-24.9-145.4-214.4-267.9-421.1l-222-377l-130.1,13.4c-162.7,17.2-379,17.2-543.6,0l-126.3-13.4L6816,676.2c-128.2,216.3-250.7,405.7-273.7,421.1c-89.9,63.2-243,21.1-296.7-82.3c-44-84.2-21-143.5,189.5-497.6c114.8-195.2,210.5-357.9,210.5-359.8c0-3.8-49.7-34.4-109.1-67c-285.2-160.8-514.8-478.5-627.8-865.1c-17.2-61.2-38.3-111-47.9-111c-47.9,0-248.8,319.6-248.8,398.1c0,57.4-65.1,141.6-128.2,168.4c-88,38.3-164.6,19.1-227.7-55.5c-45.9-53.6-49.8-70.8-40.2-170.3c13.4-145.5,134-394.3,262.2-535.9c53.6-61.2,153.1-145.4,222-189.5l122.5-80.4v-187.6v-189.5h-346.4h-346.4l-65.1-65.1c-74.7-74.6-86.1-153.1-32.5-241.2c49.8-86.1,95.7-95.7,472.8-95.7h350.2l40.2-197.1c23-109.1,42.1-204.8,42.1-212.4c0-5.8-1221.1-9.6-2712-7.7l-2713.9,5.7L505.8,90.5c-1.9,1446.9,0,2643.1,5.7,2656.5c5.7,17.2,842.1,23,4086.2,23h4076.7V1876.2z M8674.4,347v-511L8573-68.3c-57.4,53.6-151.2,124.4-212.5,158.8c-59.3,34.5-107.2,68.9-103.3,76.6c9.6,23,407.7,687.1,413.4,689C8672.5,856.1,8674.4,626.5,8674.4,347z M7918.4-158.3c158.8-49.8,271.8-112.9,378.9-208.6c82.3-72.7,223.9-277.5,223.9-321.6c0-21-187.6-24.9-1071.8-24.9c-868.9,0-1071.8,3.8-1071.8,24.9c0,38.3,109.1,204.8,187.6,287.1c93.8,97.6,218.2,174.2,359.8,223.9c191.4,65.1,271.8,74.6,572.3,68.9C7728.9-114.2,7811.2-123.8,7918.4-158.3z M7238.9-2227.2v-1113.9l-80.4,13.4c-283.3,45.9-560.8,285.2-715.8,616.3c-160.8,342.6-246.9,922.5-208.6,1410.6l13.4,185.6h495.7h495.7V-2227.2z M8664.8-1300.9c17.2-206.7,1.9-560.8-30.6-777.1c-67-446-218.2-794.3-440.2-1010.5c-105.3-103.4-329.2-220.1-451.7-239.2l-82.3-13.4v1113.9v1112h495.7h495.7L8664.8-1300.9z"/>
      <path d="M978.5,2293.5c-91.9-93.8-65.1-271.8,49.8-323.5c38.3-17.2,792.4-23,3169.5-23h3121.6l65.1,65.1c70.8,70.8,84.2,141.6,42.1,231.6c-49.7,111,145.5,105.3-3259.4,105.3H1034L978.5,2293.5z"/>
      <path d="M1045.5,1526c-109.1-44-158.9-208.6-91.9-304.3c70.8-99.5,34.4-97.6,1808.7-97.6c1827.8,0,1743.6-5.7,1804.8,124.4c17.2,34.4,30.6,72.7,30.6,86.1c0,13.4-13.4,51.7-30.6,86.1c-61.2,130.1,24.9,124.4-1820.1,122.5C1834,1543.2,1066.5,1535.6,1045.5,1526z"/>
      <path d="M1020.6,695.4c-111-61.3-132.1-227.8-42.1-319.6l55.5-55.5h2325.4c2281.4,0,2325.4,0,2371.4,38.3c114.8,90,109.1,254.6-11.5,327.3c-57.4,34.4-124.4,36.4-2356,36.4C1493.3,720.2,1058.9,716.4,1020.6,695.4z"/>
      <path d="M978.5-156.3c-91.9-93.8-65.1-271.8,49.8-323.5c36.4-17.2,421.1-23,1523.5-23c1341.7,0,1479.5,3.8,1529.2,32.5c111,65.1,130.1,222,40.2,313.9l-55.5,55.5H2549.8H1034L978.5-156.3z"/>
      <path d="M1045.5-923.8c-126.3-51.7-160.8-223.9-67-329.2l55.5-63.2l1663.2-5.7c912.9-1.9,1688.1,0,1720.6,5.7c74.6,13.4,155,90,170.3,162.7c17.2,78.5-36.4,181.8-114.8,218.2c-55.5,26.8-248.8,30.6-1726.4,28.7C1834-906.6,1066.5-914.3,1045.5-923.8z"/>
      <path d="M1028.3-1750.7c-70.8-38.3-105.3-99.5-105.3-183.7c0-67,11.5-93.8,55.5-139.7l55.5-55.5h903.4h903.4l55.5,55.5c91.9,93.8,65.1,271.8-49.8,323.5C2779.5-1720,1083.8-1718.1,1028.3-1750.7z"/>
    </g>
  </g>
</svg>